<svg width="164" height="38" viewBox="0 0 164 38" fill="none" xmlns="http://www.w3.org/2000/svg">
<g filter="url(#filter0_dd_2919_2063)">
<rect x="3.1" y="2.1" width="31.8" height="31.8" rx="7.9" fill="white"/>
<rect x="3.1" y="2.1" width="31.8" height="31.8" rx="7.9" fill="url(#paint0_linear_2919_2063)"/>
<rect x="3.1" y="2.1" width="31.8" height="31.8" rx="7.9" stroke="#D0D5DD" stroke-width="0.2"/>
<path d="M18.3546 13.1828C22.7105 11.4504 27.4742 12.8185 29.6373 14.9133C30.106 15.3671 30.5041 15.8275 30.845 16.2852C31.0394 15.2107 31.0552 14.1405 30.8681 13.1055C30.1847 9.32649 26.6195 7.18561 23.4233 8.29149C20.2415 9.3924 19.0005 11.5321 19.0005 11.5321C19.0005 11.5321 17.7595 9.3924 14.5777 8.29149C11.3812 7.18561 7.81603 9.32672 7.1328 13.1055C6.62842 15.8944 7.58356 18.9392 9.61033 21.6298C10.0372 21.7732 10.4847 21.8809 10.9586 21.9431C13.7978 22.3163 14.8184 21.557 16.0178 21.0486C16.8142 20.7113 17.4134 21.0942 17.3843 21.3626C17.3392 21.7786 15.7693 22.4895 16.106 22.6388C17.4351 23.2285 19.0718 23.2334 20.3053 22.18C21.838 20.8712 22.4114 21.7659 22.4114 21.7659C22.4114 21.7659 21.6502 23.7076 19.3581 24.6717C17.4457 25.4761 15.4419 25.6743 13.6107 25.4683C15.19 26.5846 17.0035 27.5204 19.0005 28.1883C24.7099 26.2784 28.9276 22.1871 30.4145 17.9096C29.4072 16.9157 28.1716 16.2996 26.6988 16.0763C23.8674 15.6471 22.8322 16.3863 21.6228 16.8708C20.8198 17.1926 20.2285 16.7978 20.263 16.5299C20.3161 16.1148 21.8999 15.4351 21.5661 15.279C20.249 14.6633 18.6125 14.626 17.3585 15.6549C15.8003 16.9332 15.2446 16.0274 15.2446 16.0274C15.2446 16.0274 16.0438 14.1015 18.3546 13.1828ZM17.2709 18.5052H18.3709V17.4052H19.6296V18.5052H20.7296V19.7639H19.6296V20.8639H18.3709V19.7639H17.2709V18.5052Z" fill="url(#paint1_linear_2919_2063)"/>
<path d="M17.2709 18.5052H18.3709V17.4052H19.6296V18.5052H20.7296V19.7639H19.6379C21.2597 20.5834 24.2383 21.8027 27.8177 22.3451C28.9956 20.9517 29.8813 19.4428 30.4143 17.9096C29.4069 16.9157 28.1714 16.2996 26.6986 16.0763C23.8672 15.647 22.8319 16.3863 21.6226 16.8708C20.8196 17.1926 20.2282 16.7978 20.2627 16.5299C20.3159 16.1148 21.8997 15.4351 21.5659 15.279C20.2488 14.6633 18.6123 14.626 17.3583 15.6548C15.8 16.9332 15.2444 16.0274 15.2444 16.0274C15.2444 16.0274 16.0438 14.1013 18.3543 13.1823C22.7103 11.4499 27.474 12.818 29.637 14.9128C30.1058 15.3666 30.5038 15.8271 30.8447 16.2847C31.0392 15.2102 31.055 14.14 30.8679 13.105C30.1844 9.326 26.6192 7.18512 23.423 8.291C20.2412 9.39191 19.0002 11.5316 19.0002 11.5316C19.0002 11.5316 17.7592 9.39191 14.5774 8.291C12.752 7.65927 10.8067 8.0883 9.34621 9.27521C10.0323 10.7442 10.836 12.1168 13.1255 14.8773C14.9869 17.1222 17.2709 18.5052 17.2709 18.5052Z" fill="url(#paint2_linear_2919_2063)"/>
<path opacity="0.31" d="M27.2769 9.64954C24.2711 8.13944 21.169 10.4892 20.185 11.7299C21.882 11.3725 23.3668 11.1892 25.2457 11.5839C28.0251 12.1679 29.0653 13.1715 30.3063 14.6542C30.0871 11.9069 28.3518 10.1896 27.2769 9.64954Z" fill="url(#paint3_linear_2919_2063)"/>
</g>
<path d="M45.264 28L51.432 10.12H55.656L61.824 28H58.272L57 24.16H50.088L48.792 28H45.264ZM51.024 21.28H56.064L53.088 12.376H54L51.024 21.28ZM63.8139 28V10.12H66.3579L76.1979 23.368L74.8779 23.632V10.12H78.1419V28H75.5739L65.8779 14.656L67.0779 14.392V28H63.8139ZM80.139 28L86.307 10.12H90.531L96.699 28H93.147L91.875 24.16H84.963L83.667 28H80.139ZM85.899 21.28H90.939L87.963 12.376H88.875L85.899 21.28ZM106.362 28.288C105.082 28.288 103.898 28.056 102.81 27.592C101.738 27.128 100.794 26.48 99.9784 25.648C99.1784 24.816 98.5544 23.84 98.1064 22.72C97.6584 21.6 97.4344 20.376 97.4344 19.048C97.4344 17.72 97.6504 16.496 98.0824 15.376C98.5304 14.24 99.1544 13.264 99.9544 12.448C100.77 11.616 101.722 10.976 102.81 10.528C103.898 10.064 105.082 9.832 106.362 9.832C107.642 9.832 108.786 10.048 109.794 10.48C110.818 10.912 111.682 11.488 112.386 12.208C113.09 12.912 113.594 13.688 113.898 14.536L110.97 15.904C110.634 15.008 110.066 14.272 109.266 13.696C108.466 13.104 107.498 12.808 106.362 12.808C105.242 12.808 104.25 13.072 103.386 13.6C102.538 14.128 101.874 14.856 101.394 15.784C100.93 16.712 100.698 17.8 100.698 19.048C100.698 20.296 100.93 21.392 101.394 22.336C101.874 23.264 102.538 23.992 103.386 24.52C104.25 25.048 105.242 25.312 106.362 25.312C107.498 25.312 108.466 25.024 109.266 24.448C110.066 23.856 110.634 23.112 110.97 22.216L113.898 23.584C113.594 24.432 113.09 25.216 112.386 25.936C111.682 26.64 110.818 27.208 109.794 27.64C108.786 28.072 107.642 28.288 106.362 28.288ZM120.01 28.288C119.098 28.288 118.306 28.136 117.634 27.832C116.962 27.528 116.442 27.096 116.074 26.536C115.706 25.96 115.522 25.296 115.522 24.544C115.522 23.824 115.682 23.184 116.002 22.624C116.322 22.048 116.818 21.568 117.49 21.184C118.162 20.8 119.01 20.528 120.034 20.368L124.306 19.672V22.072L120.634 22.696C120.01 22.808 119.546 23.008 119.242 23.296C118.938 23.584 118.786 23.96 118.786 24.424C118.786 24.872 118.954 25.232 119.29 25.504C119.642 25.76 120.074 25.888 120.586 25.888C121.242 25.888 121.818 25.752 122.314 25.48C122.826 25.192 123.218 24.8 123.49 24.304C123.778 23.808 123.922 23.264 123.922 22.672V19.312C123.922 18.752 123.698 18.288 123.25 17.92C122.818 17.536 122.242 17.344 121.522 17.344C120.85 17.344 120.25 17.528 119.722 17.896C119.21 18.248 118.834 18.72 118.594 19.312L116.026 18.064C116.282 17.376 116.682 16.784 117.226 16.288C117.786 15.776 118.442 15.376 119.194 15.088C119.946 14.8 120.762 14.656 121.642 14.656C122.714 14.656 123.658 14.856 124.474 15.256C125.29 15.64 125.922 16.184 126.37 16.888C126.834 17.576 127.066 18.384 127.066 19.312V28H124.09V25.768L124.762 25.72C124.426 26.28 124.026 26.752 123.562 27.136C123.098 27.504 122.57 27.792 121.978 28C121.386 28.192 120.73 28.288 120.01 28.288ZM129.972 28V14.944H132.924V17.848L132.684 17.416C132.988 16.44 133.46 15.76 134.1 15.376C134.756 14.992 135.54 14.8 136.452 14.8H137.22V17.584H136.092C135.196 17.584 134.476 17.864 133.932 18.424C133.388 18.968 133.116 19.736 133.116 20.728V28H129.972ZM145.14 28.288C143.796 28.288 142.62 27.984 141.612 27.376C140.604 26.768 139.82 25.944 139.26 24.904C138.7 23.864 138.42 22.712 138.42 21.448C138.42 20.136 138.7 18.976 139.26 17.968C139.836 16.944 140.612 16.136 141.588 15.544C142.58 14.952 143.684 14.656 144.9 14.656C145.924 14.656 146.82 14.824 147.588 15.16C148.372 15.496 149.036 15.96 149.58 16.552C150.124 17.144 150.54 17.824 150.828 18.592C151.116 19.344 151.26 20.16 151.26 21.04C151.26 21.264 151.244 21.496 151.212 21.736C151.196 21.976 151.156 22.184 151.092 22.36H141.012V19.96H149.316L147.828 21.088C147.972 20.352 147.932 19.696 147.708 19.12C147.5 18.544 147.148 18.088 146.652 17.752C146.172 17.416 145.588 17.248 144.9 17.248C144.244 17.248 143.66 17.416 143.148 17.752C142.636 18.072 142.244 18.552 141.972 19.192C141.716 19.816 141.62 20.576 141.684 21.472C141.62 22.272 141.724 22.984 141.996 23.608C142.284 24.216 142.7 24.688 143.244 25.024C143.804 25.36 144.444 25.528 145.164 25.528C145.884 25.528 146.492 25.376 146.988 25.072C147.5 24.768 147.9 24.36 148.188 23.848L150.732 25.096C150.476 25.72 150.076 26.272 149.532 26.752C148.988 27.232 148.34 27.608 147.588 27.88C146.852 28.152 146.036 28.288 145.14 28.288Z" fill="white"/>
<defs>
<filter id="filter0_dd_2919_2063" x="0" y="0" width="38" height="38" filterUnits="userSpaceOnUse" color-interpolation-filters="sRGB">
<feFlood flood-opacity="0" result="BackgroundImageFix"/>
<feColorMatrix in="SourceAlpha" type="matrix" values="0 0 0 0 0 0 0 0 0 0 0 0 0 0 0 0 0 0 127 0" result="hardAlpha"/>
<feOffset dy="1"/>
<feGaussianBlur stdDeviation="1"/>
<feColorMatrix type="matrix" values="0 0 0 0 0.0627451 0 0 0 0 0.0941176 0 0 0 0 0.156863 0 0 0 0.06 0"/>
<feBlend mode="normal" in2="BackgroundImageFix" result="effect1_dropShadow_2919_2063"/>
<feColorMatrix in="SourceAlpha" type="matrix" values="0 0 0 0 0 0 0 0 0 0 0 0 0 0 0 0 0 0 127 0" result="hardAlpha"/>
<feOffset dy="1"/>
<feGaussianBlur stdDeviation="1.5"/>
<feColorMatrix type="matrix" values="0 0 0 0 0.0627451 0 0 0 0 0.0941176 0 0 0 0 0.156863 0 0 0 0.1 0"/>
<feBlend mode="normal" in2="effect1_dropShadow_2919_2063" result="effect2_dropShadow_2919_2063"/>
<feBlend mode="normal" in="SourceGraphic" in2="effect2_dropShadow_2919_2063" result="shape"/>
</filter>
<linearGradient id="paint0_linear_2919_2063" x1="19" y1="2" x2="19" y2="34" gradientUnits="userSpaceOnUse">
<stop stop-color="white"/>
<stop offset="1" stop-color="#D0D5DD"/>
</linearGradient>
<linearGradient id="paint1_linear_2919_2063" x1="10.1989" y1="24.2137" x2="27.8347" y2="6.57791" gradientUnits="userSpaceOnUse">
<stop stop-color="#0076C1"/>
<stop offset="0.0737" stop-color="#0B82C6"/>
<stop offset="0.2766" stop-color="#269ED3"/>
<stop offset="0.4546" stop-color="#36AFDA"/>
<stop offset="0.587" stop-color="#3CB5DD"/>
</linearGradient>
<linearGradient id="paint2_linear_2919_2063" x1="10.1388" y1="24.2537" x2="27.8274" y2="6.56509" gradientUnits="userSpaceOnUse">
<stop stop-color="#00A482"/>
<stop offset="1" stop-color="#79DD83"/>
</linearGradient>
<linearGradient id="paint3_linear_2919_2063" x1="24.8608" y1="13.5073" x2="28.5287" y2="10.1132" gradientUnits="userSpaceOnUse">
<stop stop-color="#00A482"/>
<stop offset="1" stop-color="#79DD83"/>
</linearGradient>
</defs>
</svg>
